# xmcd CD database file generated by Grip 2.4
# 
# Track frame offsets:
#       150
#       14192
#       26937
#       40265
#       54292
#       67787
#       81094
#       94829
#       109172
#       122723
#       136639
#       151348
#       164308
#       175695
#       188644
#       200075
#       211371
#       222767
#       234108
#       245321
#       257568
#       270561
#       282149
#       295287
# 
# Disc length: 4112 seconds
# 
# Revision: 3
# Processed by: cddbd v1.4b41PL1 Copyright (c) Steve Scherf et al.
# Submitted via: Grip 2.4
# 
DISCID=4e100e18
DTITLE=Various Artist - Texas Fiddle Bands, Volume 1
DYEAR=1900
DGENRE=
TTITLE0=Yearling's in the Canebrake/The Gal on the Log
TTITLE1=Dusty Miller/Ma Ferguson
TTITLE2=Done Gone
TTITLE3=Cuban Two Step Rag
TTITLE4=Beaumont Rag
TTITLE5=Twinkle Twinkle Little Star
TTITLE6=Rag Time Annie
TTITLE7=Dill Piackle Rag
TTITLE8=Miss Jola
TTITLE9=Lime Rock
TTITLE10=The Gray Eagle
TTITLE11=Tom and Jerry
TTITLE12=Never Alone Waltz
TTITLE13=Texas Quickstep
TTITLE14=Texas Waltz
TTITLE15=Rag-time Annie
TTITLE16=St. Jobe's Waltz
TTITLE17=Fatal Wedding
TTITLE18=Cheat 'Em
TTITLE19=Far in the Mountain
TTITLE20=Paddy on the Hand Car
TTITLE21=The Steeley Rag
TTITLE22=Ragtime Annie
TTITLE23=Sally Johnson
EXTD=
EXTT0=
EXTT1=
EXTT2=
EXTT3=
EXTT4=
EXTT5=
EXTT6=
EXTT7=
EXTT8=
EXTT9=
EXTT10=
EXTT11=
EXTT12=
EXTT13=
EXTT14=
EXTT15=
EXTT16=
EXTT17=
EXTT18=
EXTT19=
EXTT20=
EXTT21=
EXTT22=
EXTT23=
PLAYORDER=
